<svg width="32" height="32" viewBox="0 0 32 32" fill="none" xmlns="http://www.w3.org/2000/svg">
    <path d="M25.5 9.19803C25.4997 8.57455 25.3261 7.96365 24.999 7.43471C24.6718 6.90578 24.2042 6.47999 23.6492 6.20572C23.0943 5.93145 22.4742 5.81968 21.8595 5.88311C21.2447 5.94654 20.6599 6.18262 20.1715 6.56455C19.6831 6.94648 19.3106 7.45894 19.0963 8.04374C18.882 8.62854 18.8346 9.26224 18.9594 9.87288C19.0841 10.4835 19.3761 11.0466 19.8022 11.4982C20.2282 11.9498 20.7712 12.2719 21.3696 12.4277V14.1989C21.3696 14.4199 21.2825 14.6319 21.1276 14.7882C20.9727 14.9445 20.7626 15.0323 20.5435 15.0323H11.4565C11.175 15.0322 10.8956 15.0808 10.6304 15.1761V12.4277C11.4092 12.2249 12.0878 11.7424 12.5392 11.0708C12.9906 10.3992 13.1837 9.5846 13.0824 8.77962C12.981 7.97464 12.5922 7.23459 11.9887 6.69817C11.3853 6.16176 10.6086 5.86582 9.80435 5.86582C9.0001 5.86582 8.22345 6.16176 7.61999 6.69817C7.01653 7.23459 6.62768 7.97464 6.52634 8.77962C6.425 9.5846 6.61813 10.3992 7.06951 11.0708C7.52089 11.7424 8.19955 12.2249 8.97827 12.4277V19.3039C8.19955 19.5068 7.52089 19.9892 7.06951 20.6608C6.61813 21.3324 6.425 22.147 6.52634 22.952C6.62768 23.757 7.01653 24.497 7.61999 25.0335C8.22345 25.5699 9.0001 25.8658 9.80435 25.8658C10.6086 25.8658 11.3853 25.5699 11.9887 25.0335C12.5922 24.497 12.981 23.757 13.0824 22.952C13.1837 22.147 12.9906 21.3324 12.5392 20.6608C12.0878 19.9892 11.4092 19.5068 10.6304 19.3039V17.5328C10.6304 17.3117 10.7175 17.0997 10.8724 16.9434C11.0273 16.7871 11.2374 16.6993 11.4565 16.6993H20.5435C21.2008 16.6993 21.8311 16.4359 22.2959 15.9669C22.7606 15.498 23.0217 14.862 23.0217 14.1989V12.4277C23.7308 12.2419 24.3587 11.8241 24.8072 11.2396C25.2556 10.6552 25.4993 9.93715 25.5 9.19803ZM8.15218 9.19803C8.15218 8.86834 8.24908 8.54605 8.43062 8.27192C8.61217 7.99779 8.8702 7.78414 9.1721 7.65797C9.47399 7.5318 9.80619 7.49879 10.1267 7.56311C10.4472 7.62743 10.7416 7.78619 10.9726 8.01932C11.2037 8.25245 11.361 8.54947 11.4248 8.87282C11.4885 9.19618 11.4558 9.53135 11.3308 9.83594C11.2057 10.1405 10.994 10.4009 10.7223 10.584C10.4506 10.7672 10.1311 10.865 9.80435 10.865C9.36617 10.865 8.94593 10.6894 8.63609 10.3767C8.32625 10.0641 8.15218 9.64013 8.15218 9.19803ZM11.4565 22.5336C11.4565 22.8633 11.3596 23.1856 11.1781 23.4597C10.9965 23.7338 10.7385 23.9475 10.4366 24.0737C10.1347 24.1998 9.80252 24.2328 9.48203 24.1685C9.16154 24.1042 8.86715 23.9454 8.63609 23.7123C8.40503 23.4792 8.24768 23.1822 8.18393 22.8588C8.12018 22.5355 8.1529 22.2003 8.27795 21.8957C8.40299 21.5911 8.61476 21.3308 8.88646 21.1476C9.15815 20.9644 9.47759 20.8667 9.80435 20.8667C10.2425 20.8667 10.6628 21.0423 10.9726 21.3549C11.2825 21.6675 11.4565 22.0915 11.4565 22.5336ZM22.1957 10.865C21.8689 10.865 21.5495 10.7672 21.2778 10.584C21.0061 10.4009 20.7943 10.1405 20.6692 9.83594C20.5442 9.53135 20.5115 9.19618 20.5752 8.87282C20.639 8.54947 20.7963 8.25245 21.0274 8.01932C21.2585 7.78619 21.5528 7.62743 21.8733 7.56311C22.1938 7.49879 22.526 7.5318 22.8279 7.65797C23.1298 7.78414 23.3878 7.99779 23.5694 8.27192C23.7509 8.54605 23.8478 8.86834 23.8478 9.19803C23.8478 9.64013 23.6738 10.0641 23.3639 10.3767C23.0541 10.6894 22.6338 10.865 22.1957 10.865Z" fill="#605E5C"/>
</svg>
