<svg width="32" height="32" viewBox="0 0 32 32" fill="none" xmlns="http://www.w3.org/2000/svg">
    <path d="M20.96 21.44C20.8533 21.44 20.7467 21.3867 20.64 21.28L16 16.64L11.36 21.28C11.2533 21.3867 11.0933 21.44 10.88 21.44C10.7733 21.44 10.6667 21.44 10.56 21.44C10.56 21.3333 10.56 21.2267 10.56 21.12C10.56 20.9067 10.6133 20.7467 10.72 20.64L15.36 16L10.72 11.36C10.6133 11.2533 10.56 11.1467 10.56 11.04C10.56 10.8267 10.56 10.72 10.56 10.72C10.6667 10.6133 10.7733 10.56 10.88 10.56C11.0933 10.56 11.2533 10.6133 11.36 10.72L16 15.36L20.64 10.72C20.7467 10.6133 20.8533 10.56 20.96 10.56C21.1733 10.56 21.28 10.6133 21.28 10.72C21.3867 10.72 21.44 10.8267 21.44 11.04C21.44 11.1467 21.3867 11.2533 21.28 11.36L16.64 16L21.28 20.64C21.3867 20.7467 21.44 20.9067 21.44 21.12C21.44 21.2267 21.3867 21.3333 21.28 21.44C21.28 21.44 21.1733 21.44 20.96 21.44Z" fill="#605E5C"/>
</svg>
