<svg viewBox="0 0 10 10" fill="none" xmlns="http://www.w3.org/2000/svg">
    <path d="M0.8 0.3C0.933333 0.233334 1.03333 0.2 1.1 0.2C1.23333 0.2 1.33333 0.233334 1.4 0.3L5.6 4.5C5.73333 4.63333 5.8 4.8 5.8 5C5.8 5.2 5.73333 5.36667 5.6 5.5L1.4 9.7C1.33333 9.76667 1.23333 9.8 1.1 9.8C1.03333 9.8 0.933333 9.76667 0.8 9.7C0.733333 9.56667 0.7 9.46667 0.7 9.4C0.7 9.26667 0.733333 9.16667 0.8 9.1L4.9 5L0.8 0.9C0.733333 0.833334 0.7 0.766667 0.7 0.7C0.7 0.566667 0.733333 0.433334 0.8 0.3Z" fill="#605E5C"/>
</svg>
