<svg width="32" height="31" viewBox="0 0 32 31" fill="none" xmlns="http://www.w3.org/2000/svg">
    <path d="M10.1927 15.9521C10.5931 15.1513 11.0293 14.3797 11.5011 13.6374C11.9739 12.8952 12.4949 12.1697 13.0641 11.461L11.0814 11.0567C10.9487 11.0231 10.8204 11.0274 10.6964 11.0696C10.5724 11.1118 10.4605 11.182 10.3606 11.2801L7.22702 14.415C7.17708 14.4641 7.16029 14.5218 7.17665 14.5881C7.19301 14.6544 7.23434 14.7043 7.30065 14.7379L10.1927 15.9521ZM24.9874 6.30206C23 6.44414 21.2498 6.88116 19.7368 7.6131C18.2238 8.34504 16.8009 9.37752 15.4679 10.7105C14.5155 11.6646 13.6841 12.6584 12.9736 13.6917C12.2632 14.725 11.6777 15.7519 11.217 16.7723L14.8737 20.4213C15.8941 19.9606 16.9249 19.375 17.9659 18.6646C19.007 17.9542 20.0051 17.1219 20.96 16.1678C22.293 14.8348 23.3255 13.4174 24.0574 11.9156C24.7894 10.4139 25.2264 8.66925 25.3685 6.68181C25.3685 6.62928 25.3646 6.58063 25.3569 6.53585C25.3491 6.49107 25.3216 6.44457 25.2742 6.39635C25.2268 6.34813 25.1803 6.32057 25.1347 6.31368C25.0891 6.30679 25.0404 6.30249 24.9887 6.30077M18.0835 13.5806C17.7046 13.2008 17.5151 12.7458 17.5151 12.2153C17.5151 11.6849 17.7046 11.2298 18.0835 10.85C18.4624 10.4703 18.9188 10.2808 19.4526 10.2817C19.9865 10.2825 20.4425 10.472 20.8205 10.85C21.1986 11.228 21.388 11.6831 21.3889 12.2153C21.3897 12.7475 21.2003 13.2021 20.8205 13.5793C20.4408 13.9565 19.9844 14.1459 19.4514 14.1476C18.9183 14.1494 18.4619 13.9599 18.0822 13.5793M15.6926 21.4688L16.9081 24.3686C16.9416 24.434 16.9912 24.4711 17.0566 24.4797C17.1221 24.4883 17.1802 24.4676 17.231 24.4177L20.3659 21.3074C20.4649 21.2083 20.5351 21.0964 20.5764 20.9715C20.6186 20.8475 20.6229 20.7196 20.5893 20.5879L20.185 18.6052C19.4763 19.1752 18.7508 19.6949 18.0086 20.1642C17.2663 20.6335 16.4934 21.0684 15.6926 21.4688ZM26.6046 6.11347C26.5943 8.26625 26.1861 10.252 25.3801 12.0706C24.5741 13.8893 23.3716 15.5978 21.7725 17.196C21.6898 17.2786 21.611 17.3531 21.5361 17.4194C21.4612 17.4857 21.3828 17.5602 21.301 17.6429L21.8474 20.3192C21.9163 20.6671 21.8991 21.0042 21.7957 21.3306C21.6915 21.6561 21.5133 21.9446 21.261 22.196L17.6637 25.7933C17.4071 26.0499 17.0941 26.1446 16.7246 26.0775C16.3561 26.0112 16.1021 25.8041 15.9626 25.4562L14.4151 21.8072L9.83748 17.2037L6.18852 15.6563C5.84063 15.5177 5.63612 15.2636 5.57498 14.8942C5.51384 14.5248 5.61158 14.2118 5.86819 13.9552L9.46419 10.3579C9.71563 10.1064 10.0058 9.93293 10.3348 9.83735C10.6629 9.74091 11.0008 9.72756 11.3487 9.79731L14.0238 10.3437C14.1064 10.261 14.1771 10.1865 14.2356 10.1202C14.2933 10.0539 14.3635 9.97943 14.4461 9.89677C16.0444 8.29854 17.7528 7.09213 19.5715 6.27752C21.3901 5.46291 23.3763 5.05043 25.5299 5.0401C25.6686 5.04527 25.8033 5.07282 25.9342 5.12277C26.0651 5.17271 26.187 5.25452 26.2998 5.36818C26.4126 5.48185 26.4901 5.59939 26.5323 5.72081C26.5745 5.84223 26.5977 5.97311 26.602 6.11347M7.10948 20.8824C7.61495 20.3778 8.22893 20.1281 8.9514 20.1332C9.67387 20.1384 10.2878 20.3941 10.7933 20.9005C11.2988 21.4068 11.5502 22.0208 11.5476 22.7424C11.5451 23.4657 11.291 24.0797 10.7856 24.5843C10.0674 25.3025 9.22265 25.7546 8.25132 25.9406C7.27998 26.1257 6.29918 26.2656 5.3089 26.3603C5.40362 25.3528 5.54786 24.3677 5.74161 23.405C5.93536 22.4423 6.39045 21.6014 7.10948 20.8824ZM8.03173 21.8214C7.64854 22.2046 7.38289 22.6546 7.23477 23.1712C7.08666 23.6879 6.97773 24.2235 6.90798 24.7781C7.4634 24.7083 7.99944 24.5964 8.51611 24.4422C9.03277 24.2881 9.48227 24.0198 9.86461 23.6375C10.1229 23.3792 10.2547 23.0713 10.2599 22.714C10.2642 22.3558 10.1371 22.0475 9.87882 21.7891C9.62048 21.5308 9.31263 21.4072 8.95527 21.4184C8.59791 21.4288 8.29007 21.5631 8.03173 21.8214Z" fill="#605E5C"/>
</svg>
