<svg width="13" height="16" viewBox="0 0 13 16" fill="none" xmlns="http://www.w3.org/2000/svg">
    <path d="M6.415 3.33732V4.72831C6.415 5.078 6.84801 5.24896 7.09659 5.00029L9.33383 2.83221C9.4942 2.67679 9.4942 2.43589 9.33383 2.28047L7.09659 0.112382C6.84801 -0.128517 6.415 0.0424436 6.415 0.392135V1.78313C2.87071 1.78313 0 4.56512 0 7.99987C0 8.80805 0.160375 9.58514 0.457069 10.2923C0.673575 10.8129 1.36319 10.9528 1.77214 10.5565C1.98865 10.3467 2.07686 10.0281 1.95658 9.74833C1.72403 9.21213 1.60375 8.61377 1.60375 7.99987C1.60375 5.42769 3.76079 3.33732 6.415 3.33732ZM11.0579 5.44324C10.8414 5.65305 10.7531 5.97943 10.8734 6.25141C11.0979 6.79538 11.2262 7.38597 11.2262 7.99987C11.2262 10.572 9.06921 12.6624 6.415 12.6624V11.2714C6.415 10.9217 5.98199 10.7508 5.73341 10.9994L3.49617 13.1675C3.3358 13.323 3.3358 13.5639 3.49617 13.7193L5.73341 15.8874C5.98199 16.1283 6.415 15.9573 6.415 15.6154V14.2166C9.95929 14.2166 12.83 11.4346 12.83 7.99987C12.83 7.19169 12.6696 6.4146 12.3729 5.70745C12.1564 5.1868 11.4668 5.04692 11.0579 5.44324Z" fill="#058192"/>
</svg>
