<svg width="48" height="48" viewBox="0 0 48 48" fill="none" xmlns="http://www.w3.org/2000/svg">
    <path d="M24 30.3636C24.4822 30.3636 24.9447 30.5552 25.2856 30.8962C25.6266 31.2371 25.8182 31.6996 25.8182 32.1818C25.8182 32.664 25.6266 33.1265 25.2856 33.4675C24.9447 33.8084 24.4822 34 24 34C23.5178 34 23.0553 33.8084 22.7144 33.4675C22.3734 33.1265 22.1818 32.664 22.1818 32.1818C22.1818 31.6996 22.3734 31.2371 22.7144 30.8962C23.0553 30.5552 23.5178 30.3636 24 30.3636ZM32.1818 30.3636C32.664 30.3636 33.1265 30.5552 33.4675 30.8962C33.8084 31.2371 34 31.6996 34 32.1818C34 32.664 33.8084 33.1265 33.4675 33.4675C33.1265 33.8084 32.664 34 32.1818 34C31.6996 34 31.2371 33.8084 30.8962 33.4675C30.5552 33.1265 30.3636 32.664 30.3636 32.1818C30.3636 31.6996 30.5552 31.2371 30.8962 30.8962C31.2371 30.5552 31.6996 30.3636 32.1818 30.3636ZM15.8182 30.3636C16.3004 30.3636 16.7629 30.5552 17.1038 30.8962C17.4448 31.2371 17.6364 31.6996 17.6364 32.1818C17.6364 32.664 17.4448 33.1265 17.1038 33.4675C16.7629 33.8084 16.3004 34 15.8182 34C15.336 34 14.8735 33.8084 14.5325 33.4675C14.1916 33.1265 14 32.664 14 32.1818C14 31.6996 14.1916 31.2371 14.5325 30.8962C14.8735 30.5552 15.336 30.3636 15.8182 30.3636ZM24 22.1818C24.4822 22.1818 24.9447 22.3734 25.2856 22.7144C25.6266 23.0553 25.8182 23.5178 25.8182 24C25.8182 24.4822 25.6266 24.9447 25.2856 25.2856C24.9447 25.6266 24.4822 25.8182 24 25.8182C23.5178 25.8182 23.0553 25.6266 22.7144 25.2856C22.3734 24.9447 22.1818 24.4822 22.1818 24C22.1818 23.5178 22.3734 23.0553 22.7144 22.7144C23.0553 22.3734 23.5178 22.1818 24 22.1818ZM32.1818 22.1818C32.664 22.1818 33.1265 22.3734 33.4675 22.7144C33.8084 23.0553 34 23.5178 34 24C34 24.4822 33.8084 24.9447 33.4675 25.2856C33.1265 25.6266 32.664 25.8182 32.1818 25.8182C31.6996 25.8182 31.2371 25.6266 30.8962 25.2856C30.5552 24.9447 30.3636 24.4822 30.3636 24C30.3636 23.5178 30.5552 23.0553 30.8962 22.7144C31.2371 22.3734 31.6996 22.1818 32.1818 22.1818ZM15.8182 22.1818C16.3004 22.1818 16.7629 22.3734 17.1038 22.7144C17.4448 23.0553 17.6364 23.5178 17.6364 24C17.6364 24.4822 17.4448 24.9447 17.1038 25.2856C16.7629 25.6266 16.3004 25.8182 15.8182 25.8182C15.336 25.8182 14.8735 25.6266 14.5325 25.2856C14.1916 24.9447 14 24.4822 14 24C14 23.5178 14.1916 23.0553 14.5325 22.7144C14.8735 22.3734 15.336 22.1818 15.8182 22.1818ZM24 14C24.4822 14 24.9447 14.1916 25.2856 14.5325C25.6266 14.8735 25.8182 15.336 25.8182 15.8182C25.8182 16.3004 25.6266 16.7629 25.2856 17.1038C24.9447 17.4448 24.4822 17.6364 24 17.6364C23.5178 17.6364 23.0553 17.4448 22.7144 17.1038C22.3734 16.7629 22.1818 16.3004 22.1818 15.8182C22.1818 15.336 22.3734 14.8735 22.7144 14.5325C23.0553 14.1916 23.5178 14 24 14ZM32.1818 14C32.664 14 33.1265 14.1916 33.4675 14.5325C33.8084 14.8735 34 15.336 34 15.8182C34 16.3004 33.8084 16.7629 33.4675 17.1038C33.1265 17.4448 32.664 17.6364 32.1818 17.6364C31.6996 17.6364 31.2371 17.4448 30.8962 17.1038C30.5552 16.7629 30.3636 16.3004 30.3636 15.8182C30.3636 15.336 30.5552 14.8735 30.8962 14.5325C31.2371 14.1916 31.6996 14 32.1818 14ZM15.8182 14C16.3004 14 16.7629 14.1916 17.1038 14.5325C17.4448 14.8735 17.6364 15.336 17.6364 15.8182C17.6364 16.3004 17.4448 16.7629 17.1038 17.1038C16.7629 17.4448 16.3004 17.6364 15.8182 17.6364C15.336 17.6364 14.8735 17.4448 14.5325 17.1038C14.1916 16.7629 14 16.3004 14 15.8182C14 15.336 14.1916 14.8735 14.5325 14.5325C14.8735 14.1916 15.336 14 15.8182 14Z" fill="black"/>
</svg>